# xmcd
#
# Track frame offsets:
#	150
#	12735
#	25812
#	40952
#	55375
#	67290
#	81197
#	93322
#	109975
#	123160
#	136402
#	152830
#	166022
#	177697
#	189462
#
# Disc length: 2706 seconds
#
# Revision: 1
# Processed by: cddbd v1.5.1PL2 Copyright (c) Steve Scherf et al.
# Submitted via: audiograbber 1.83.01
#
DISCID=d30a900f
DTITLE=Music Maestro - MM6314
DYEAR=1900
DGENRE=Karaoke
TTITLE0=Wagoner and Parton - Last Thing On My Mind
TTITLE1=Jennings and Carter - I Got You
TTITLE2=Jones and Wynette - Golden Ring
TTITLE3=Brown and Cornelius - I Don't Want To Have To Marry You
TTITLE4=Lynn and Twitty - Louisiana Woman, Mississippi Man
TTITLE5=Bandy and Baily - Following The Feeling
TTITLE6=Campbell and Mann - Dark End Of The Street
TTITLE7=Rogers and West - All I Ever Need Is You
TTITLE8=Wynette and Jones - Two Story House
TTITLE9=Blanchard and Morgan - You've Got Your Troubles (I've Got Mine)
TTITLE10=Nelson and Inglesias - To All The Girls I've Loved Before
TTITLE11=Drusky and Mitchell - Yes, Mr. Peters
TTITLE12=Houston and Mandrell - After Closing Time
TTITLE13=Wynette and Jones - Near You
TTITLE14=Lynn and Twitty - After The Fire Is Gone
EXTD=
EXTT0=
EXTT1=
EXTT2=
EXTT3=
EXTT4=
EXTT5=
EXTT6=
EXTT7=
EXTT8=
EXTT9=
EXTT10=
EXTT11=
EXTT12=
EXTT13=
EXTT14=
PLAYORDER=
